<svg width="64" height="64" viewBox="0 0 64 64" fill="none" xmlns="http://www.w3.org/2000/svg">
  <circle cx="20" cy="26" r="8" fill="currentColor"/>
  <path d="M8 45C10 38.5 14.1 35 20 35C25.9 35 30 38.5 32 45H8Z" fill="currentColor"/>
  <circle cx="44" cy="38" r="8" fill="currentColor"/>
  <path d="M32 57C34 50.5 38.1 47 44 47C49.9 47 54 50.5 56 57H32Z" fill="currentColor"/>
  <circle cx="48" cy="15" r="5" fill="currentColor"/>
  <path d="M28 25C34.5 19.5 40.4 16.5 48 15" stroke="currentColor" stroke-width="4" stroke-linecap="round"/>
  <path d="M27 32C32 34 37.5 36 44 38" stroke="currentColor" stroke-width="4" stroke-linecap="round"/>
  <path d="M49 15L54 11" stroke="currentColor" stroke-width="4" stroke-linecap="round"/>
</svg>
