<svg width="32" height="32" viewBox="0 0 32 32" fill="none" xmlns="http://www.w3.org/2000/svg">
  <path d="M8.4 22.7H21.7C22.9 22.7 23.6 21.4 22.9 20.4C21.9 19 21.2 17.1 21.2 14.2C21.2 10.7 18.9 8 15.7 8C12.5 8 10.2 10.7 10.2 14.2C10.2 17.1 9.5 19 8.5 20.4C7.8 21.4 7.2 22.7 8.4 22.7Z" stroke="#23579F" stroke-width="2.4" stroke-linecap="round" stroke-linejoin="round"/>
  <path d="M13.5 25.1C14 26.2 14.8 26.8 15.8 26.8C16.8 26.8 17.6 26.2 18.1 25.1" stroke="#23579F" stroke-width="2.4" stroke-linecap="round"/>
  <path d="M15.8 5.4V7.7" stroke="#23579F" stroke-width="2.4" stroke-linecap="round"/>
  <circle cx="24.8" cy="7.2" r="4" fill="#23579F"/>
</svg>
