<svg width="32" height="32" viewBox="0 0 32 32" fill="none" xmlns="http://www.w3.org/2000/svg">
  <path d="M11.2 20.2C8.9 18.7 7.5 16.2 7.5 13.4C7.5 8.8 11.2 5.2 15.8 5.2C20.4 5.2 24.1 8.8 24.1 13.4C24.1 16.2 22.7 18.7 20.4 20.2C19.6 20.7 19.2 21.3 19.2 22.1H12.4C12.4 21.3 12 20.7 11.2 20.2Z" stroke="currentColor" stroke-width="1.9" stroke-linejoin="round"/>
  <path d="M12.8 25H18.8" stroke="currentColor" stroke-width="1.9" stroke-linecap="round"/>
  <path d="M14 28H17.6" stroke="currentColor" stroke-width="1.9" stroke-linecap="round"/>
  <path d="M15.8 1.8V3.6" stroke="currentColor" stroke-width="1.9" stroke-linecap="round"/>
  <path d="M4.2 13.2H2.4" stroke="currentColor" stroke-width="1.9" stroke-linecap="round"/>
  <path d="M29.2 13.2H27.4" stroke="currentColor" stroke-width="1.9" stroke-linecap="round"/>
  <path d="M6.8 4.2L8.1 5.5" stroke="currentColor" stroke-width="1.9" stroke-linecap="round"/>
  <path d="M24.8 4.2L23.5 5.5" stroke="currentColor" stroke-width="1.9" stroke-linecap="round"/>
</svg>
