<svg width="32" height="32" viewBox="0 0 32 32" fill="none" xmlns="http://www.w3.org/2000/svg">
  <path d="M5 16.8L10.2 11.6C11.2 10.6 12.7 10.4 13.9 11.1L16.2 12.4L18.2 11.2C19.4 10.5 20.9 10.7 21.9 11.7L27 16.8" stroke="currentColor" stroke-width="2" stroke-linecap="round" stroke-linejoin="round"/>
  <path d="M12.4 18.6L15.7 15.3L19.5 19.1C20.3 19.9 20.3 21.1 19.5 21.9C18.8 22.6 17.6 22.6 16.9 21.9L14.5 19.5" stroke="currentColor" stroke-width="2" stroke-linecap="round" stroke-linejoin="round"/>
  <path d="M8.4 20.4L11.6 23.6C12.5 24.5 13.9 24.5 14.8 23.6L16 22.4" stroke="currentColor" stroke-width="2" stroke-linecap="round" stroke-linejoin="round"/>
  <path d="M3.6 14.4L8.4 19.2" stroke="currentColor" stroke-width="2" stroke-linecap="round"/>
  <path d="M28.4 14.4L23.6 19.2" stroke="currentColor" stroke-width="2" stroke-linecap="round"/>
</svg>
