<svg width="48" height="48" viewBox="0 0 48 48" fill="none" xmlns="http://www.w3.org/2000/svg">
  <path d="M17 7H11C8.8 7 7 8.8 7 11V17" stroke="currentColor" stroke-width="2.8" stroke-linecap="round"/>
  <path d="M31 7H37C39.2 7 41 8.8 41 11V17" stroke="currentColor" stroke-width="2.8" stroke-linecap="round"/>
  <path d="M17 41H11C8.8 41 7 39.2 7 37V31" stroke="currentColor" stroke-width="2.8" stroke-linecap="round"/>
  <path d="M31 41H37C39.2 41 41 39.2 41 37V31" stroke="currentColor" stroke-width="2.8" stroke-linecap="round"/>
  <rect x="15" y="14" width="8" height="8" rx="1.5" fill="currentColor" opacity="0.14"/>
  <rect x="15" y="14" width="8" height="8" rx="1.5" stroke="currentColor" stroke-width="2.8"/>
  <rect x="27" y="14" width="8" height="8" rx="1.5" stroke="currentColor" stroke-width="2.8"/>
  <rect x="15" y="27" width="8" height="8" rx="1.5" stroke="currentColor" stroke-width="2.8"/>
  <path d="M28 29.5H36" stroke="currentColor" stroke-width="2.8" stroke-linecap="round"/>
  <path d="M28 35H33.5" stroke="currentColor" stroke-width="2.8" stroke-linecap="round"/>
</svg>
