<svg width="48" height="48" viewBox="0 0 48 48" fill="none" xmlns="http://www.w3.org/2000/svg">
  <circle cx="24" cy="20" r="5" fill="currentColor" opacity="0.14"/>
  <circle cx="24" cy="20" r="5" stroke="currentColor" stroke-width="2.8"/>
  <circle cx="13" cy="24" r="4.2" stroke="currentColor" stroke-width="2.8"/>
  <circle cx="35" cy="24" r="4.2" stroke="currentColor" stroke-width="2.8"/>
  <path d="M15 40C16.6 34.8 19.6 32 24 32C28.4 32 31.4 34.8 33 40" stroke="currentColor" stroke-width="2.8" stroke-linecap="round"/>
  <path d="M6 40C7 35.5 9.6 33 13 33C14.6 33 16 33.5 17.2 34.5" stroke="currentColor" stroke-width="2.8" stroke-linecap="round"/>
  <path d="M42 40C41 35.5 38.4 33 35 33C33.4 33 32 33.5 30.8 34.5" stroke="currentColor" stroke-width="2.8" stroke-linecap="round"/>
  <path d="M17 11H29C31.2 11 33 12.8 33 15V17" stroke="currentColor" stroke-width="2.8" stroke-linecap="round"/>
  <path d="M22 6H36C38.2 6 40 7.8 40 10V18" stroke="currentColor" stroke-width="2.8" stroke-linecap="round"/>
</svg>
