<svg width="24" height="24" viewBox="0 0 24 24" fill="none" xmlns="http://www.w3.org/2000/svg">
<path d="M12 11.25C13.933 11.25 15.5 9.683 15.5 7.75C15.5 5.817 13.933 4.25 12 4.25C10.067 4.25 8.5 5.817 8.5 7.75C8.5 9.683 10.067 11.25 12 11.25Z" stroke="currentColor" stroke-width="2"/>
<path d="M5.75 19.75C6.45 16.6 8.7 14.75 12 14.75C15.3 14.75 17.55 16.6 18.25 19.75" stroke="currentColor" stroke-width="2" stroke-linecap="round"/>
<path d="M5.75 12C7.13071 12 8.25 10.8807 8.25 9.5C8.25 8.11929 7.13071 7 5.75 7C4.36929 7 3.25 8.11929 3.25 9.5C3.25 10.8807 4.36929 12 5.75 12Z" stroke="currentColor" stroke-width="1.8"/>
<path d="M1.75 18.25C2.2 15.95 3.55 14.65 5.75 14.65" stroke="currentColor" stroke-width="1.8" stroke-linecap="round"/>
<path d="M18.25 12C19.6307 12 20.75 10.8807 20.75 9.5C20.75 8.11929 19.6307 7 18.25 7C16.8693 7 15.75 8.11929 15.75 9.5C15.75 10.8807 16.8693 12 18.25 12Z" stroke="currentColor" stroke-width="1.8"/>
<path d="M18.25 14.65C20.45 14.65 21.8 15.95 22.25 18.25" stroke="currentColor" stroke-width="1.8" stroke-linecap="round"/>
</svg>
